<svg width="80" height="80" viewBox="0 0 80 80" fill="none" xmlns="http://www.w3.org/2000/svg">
<path d="M22.6234 11.7585C19.3782 11.7585 16.7366 14.402 16.7366 17.6471V62.8697C16.7366 66.1148 19.3782 68.7583 22.6234 68.7583H57.2037C60.4489 68.7583 63.0905 66.1149 63.0905 62.8697V25.6841C63.0905 25.6841 63.1831 24.5953 62.7104 23.5357C62.2673 22.5425 61.5452 21.8512 61.5452 21.8512C61.5434 21.8487 61.5416 21.8463 61.5398 21.8439L52.9603 13.4285C52.9556 13.4237 52.9508 13.419 52.946 13.4143C52.946 13.4143 52.2135 12.7168 51.1277 12.2508C49.8492 11.7022 48.5314 11.7601 48.5314 11.7601L48.551 11.7583L22.6234 11.7585Z" fill="#FF2116"/>
<path d="M22.6234 13.6928H48.551C48.5576 13.6929 48.5641 13.6929 48.5707 13.6928C48.5707 13.6928 49.6075 13.7029 50.3658 14.0283C51.0957 14.3415 51.6132 14.8156 51.6167 14.8188L51.6203 14.8225L60.1783 23.2182C60.1783 23.2182 60.694 23.7625 60.9439 24.3227C61.1456 24.7749 61.158 25.6022 61.158 25.6022C61.1571 25.6158 61.1565 25.6295 61.1562 25.6432V62.8698C61.1562 65.077 59.4109 66.8241 57.2037 66.8241H22.6234C20.4161 66.8241 18.6709 65.0771 18.6709 62.8698V17.6472C18.6709 15.4398 20.4161 13.6928 22.6234 13.6928Z" fill="#F5F5F5"/>
<path d="M28.3108 45.6957C26.98 44.3649 28.4199 42.5361 32.3276 40.5941L34.7863 39.3722L35.7442 37.2763C36.2711 36.1236 37.0574 34.2428 37.4916 33.0967L38.281 31.0129L37.737 29.4707C37.0681 27.5745 36.8295 24.725 37.254 23.7004C37.8288 22.3125 39.7119 22.4549 40.4574 23.9427C41.0396 25.1046 40.9801 27.2088 40.2899 29.8625L39.7241 32.038L40.2225 32.8841C40.4966 33.3494 41.2973 34.4543 42.0018 35.3394L43.3258 36.9864L44.9734 36.7714C50.2076 36.0884 52.0003 37.2492 52.0003 38.9136C52.0003 41.0142 47.8904 41.1876 44.4391 38.7636C43.6626 38.2181 43.1293 37.6763 43.1293 37.6763C43.1293 37.6763 40.9672 38.1165 39.9026 38.4034C38.8038 38.6996 38.2556 38.8851 36.646 39.4284C36.646 39.4284 36.0813 40.2485 35.7133 40.8447C34.3441 43.0629 32.7455 44.9012 31.6038 45.5703C30.3256 46.3194 28.9855 46.3704 28.3108 45.6957ZM30.3994 44.9496C31.1475 44.4872 32.6617 42.6964 33.7099 41.0342L34.1342 40.3613L32.2019 41.3328C29.2175 42.8334 27.8522 44.2476 28.5622 45.103C28.961 45.5836 29.4381 45.5437 30.3994 44.9496ZM49.7848 39.5083C50.5165 38.9957 50.4103 37.9629 49.583 37.5465C48.9392 37.2225 48.4204 37.1559 46.7479 37.1806C45.7202 37.2506 44.0676 37.4578 43.7875 37.5208C43.7875 37.5208 44.6954 38.1482 45.0984 38.3789C45.635 38.6853 46.9389 39.2542 47.8909 39.5456C48.83 39.833 49.3732 39.8028 49.7848 39.5083ZM41.9902 36.2686C41.5474 35.8031 40.7943 34.8315 40.3169 34.1095C39.6924 33.2905 39.3792 32.7127 39.3792 32.7127C39.3792 32.7127 38.9228 34.1809 38.5483 35.0643L37.38 37.9521L37.0413 38.6071C37.0413 38.6071 38.8421 38.0167 39.7583 37.7773C40.7287 37.5239 42.6982 37.1366 42.6982 37.1366L41.9902 36.2686ZM39.4783 26.1952C39.5912 25.2473 39.6392 24.3009 39.3346 23.8236C38.4899 22.9001 37.4703 23.6702 37.643 25.8657C37.7011 26.6043 37.8846 27.8668 38.1299 28.645L38.5759 30.0599L38.8898 28.9942C39.0625 28.4081 39.3273 27.1486 39.4783 26.1952Z" fill="#FF2116"/>
<path d="M30.5741 51.8587H32.7348C33.4252 51.8587 33.9856 51.9248 34.4161 52.0569C34.8465 52.1847 35.2088 52.4724 35.5028 52.9199C35.7969 53.3631 35.9439 53.898 35.9439 54.5244C35.9439 55.0998 35.8246 55.5941 35.5859 56.0075C35.3473 56.4209 35.0255 56.7192 34.6206 56.9025C34.22 57.0858 33.6021 57.1774 32.7668 57.1774H32.0188V60.5847H30.5741V51.8587ZM32.0188 52.9774V56.0203H32.7348C33.3741 56.0203 33.8152 55.901 34.0581 55.6623C34.3053 55.4237 34.4289 55.0359 34.4289 54.4989C34.4289 54.0983 34.3479 53.7744 34.1859 53.5272C34.024 53.2757 33.845 53.1223 33.649 53.0669C33.4572 53.0072 33.1525 52.9774 32.7348 52.9774L32.0188 52.9774ZM37.0498 51.8587H39.0124C39.9627 51.8587 40.7213 52.0271 41.2881 52.3637C41.8592 52.7004 42.2897 53.2012 42.5795 53.866C42.8735 54.5308 43.0206 55.2681 43.0206 56.0779C43.0206 56.9302 42.8884 57.6909 42.6242 58.36C42.3642 59.0249 41.9636 59.5618 41.4224 59.971C40.8854 60.3801 40.1183 60.5847 39.121 60.5847H37.0498V51.8587ZM38.4946 53.0158V59.4276H39.0955C39.935 59.4276 40.5445 59.1378 40.9238 58.5582C41.3031 57.9743 41.4927 57.1966 41.4927 56.2249C41.4927 54.0855 40.6936 53.0158 39.0955 53.0158H38.4946ZM44.4078 51.8587H49.2534V53.0158H45.8525V55.624H48.5758V56.781H45.8525V60.5847H44.4078V51.8587Z" fill="#2C2C2C"/>
</svg>
