<svg width="32" height="32" viewBox="0 0 32 32" fill="none" xmlns="http://www.w3.org/2000/svg">
<g clip-path="url(#clip0_15_2997)">
<path fill-rule="evenodd" clip-rule="evenodd" d="M25.0179 7.27398C24.8602 8.14853 24.8602 8.14853 24.7455 8.70767C24.4588 9.4962 24.086 10.127 23.6129 10.8152C23.5842 10.8295 23.5699 10.8439 23.5412 10.8582C22.2222 12.3636 20.6452 13.2955 18.7527 13.955C18.3799 14.041 18.3799 14.041 18.3369 14.0697V14.1557C18.4659 14.2847 18.7097 14.2561 18.8674 14.2561C19.0107 14.2991 19.0108 14.2991 19.2401 14.3134C19.9283 14.5285 20.5878 14.7865 21.2186 15.1593C21.2616 15.2166 21.5627 15.4317 22.0502 15.8618C22.1935 16.0338 22.3369 16.2059 22.4803 16.3779C22.7814 16.808 22.9964 17.3098 23.1828 17.8116C23.2401 18.0697 23.2975 18.3277 23.3548 18.5858C23.3835 18.8725 23.3835 18.8725 23.3835 19.6181C23.3262 19.9765 23.2545 20.3349 23.1971 20.6933C23.0968 20.9084 23.0681 21.0661 22.8961 21.4962C22.5233 22.2417 22.1075 22.9299 21.5627 23.5607C20.9032 24.2489 20.1864 24.851 19.4265 25.4245C19.2975 25.4819 19.0968 25.5535 19.0107 25.6682C17.8351 26.3277 16.6738 26.7722 15.3978 27.2166C14.6093 27.3743 13.8351 27.532 13.0323 27.6324C11.5699 27.7184 11.5699 27.7184 11.1541 27.7614C9.8638 27.8044 4.88889 28.0482 4.80287 28.0338C4.73118 27.9622 4.74552 27.7758 4.80287 27.7041C6.1362 27.317 7.49821 26.8725 8.84588 26.5428C8.96057 26.4998 11.2258 25.8403 11.4552 25.7543C12.4731 25.5392 13.4767 25.1521 14.4803 24.8797C14.7097 24.7937 15.914 24.4639 17.0323 24.1342C18.0215 23.9048 19.0681 23.5894 20.0287 23.2596C20.0717 23.2023 20.0717 23.1449 20.0717 23.0733C20.043 23.0589 20.0143 23.0303 20 23.0159C19.914 23.0159 18.6237 23.3457 12.6021 24.808C12.5735 24.8224 12.5448 24.8367 12.5305 24.851C11.4265 25.0661 10.3226 25.3815 9.21864 25.6396C9.13261 25.6682 9.04659 25.6969 8.97491 25.7256C4.80287 26.7148 4.80287 26.7148 4.70251 26.7578H4.58781C4.50179 26.6432 4.44444 26.6288 4.47312 26.4711C4.78853 26.2704 4.78853 26.2704 5.56272 25.8259C5.76344 25.7399 7.67025 24.6503 7.85663 24.5643C9.37634 23.6611 10.9534 22.8152 12.4731 21.9263C13.7491 21.2238 15.0394 20.4926 16.3154 19.7901C16.3584 19.7614 16.4014 19.7328 16.4444 19.6898C17.4194 19.188 18.3656 18.6288 19.3262 18.0984C19.7706 17.912 20.2437 17.6252 20.6452 17.3528C20.7168 17.2525 20.6595 17.1234 20.5448 17.1091C19.6129 17.5822 18.6953 18.0697 17.7778 18.5428C17.6344 18.5858 17.6344 18.5858 17.491 18.6862C14.853 20.0338 14.853 20.0338 14.638 20.1199C14.3369 20.3062 13.5484 20.6933 13.4767 20.7507C12.3297 21.3242 11.1828 21.9263 10.0502 22.5428C10.0072 22.5571 9.97849 22.5571 9.94982 22.5715C9.33333 22.9872 8.58781 23.2596 7.95699 23.6467C6.85305 24.1915 5.73477 24.765 4.64516 25.3385C4.51613 25.3672 3.68459 25.955 3.77061 25.3815C4.1577 25.0231 4.5448 24.6503 4.9319 24.2919C5.04659 24.1629 5.34767 23.8905 5.39068 23.8761C5.80645 23.4173 6.27957 22.8869 6.7957 22.5428C6.82437 22.4998 6.86738 22.4568 6.89606 22.3994C7.89964 21.4675 8.91756 20.5213 9.87813 19.532C12.7599 16.7794 15.6559 14.0267 18.552 11.317C18.638 11.2023 18.724 11.0876 18.853 11.0159C20.6165 9.32416 20.7312 9.19513 22.8244 7.2023C22.9677 7.10194 22.9677 7.10194 23.0108 7.01592C23.0108 6.67183 22.81 6.82954 22.6237 6.97291C22.1075 7.48903 21.5484 7.94781 21.0179 8.44961C20.8172 8.73635 20.4588 8.93706 20.2294 9.20946C19.7276 9.66825 19.1398 10.2847 18.5663 10.6862C18.1505 11.1019 17.6774 11.532 17.2186 11.8905C15.5699 13.4819 13.7491 14.9156 12.1147 16.5213C11.3118 17.1521 10.6093 17.9693 9.79211 18.5858C9.57706 18.8295 9.57706 18.8295 8.11469 20.1772C8.05735 20.2202 8.01434 20.2489 7.95699 20.2776C6.32258 21.7829 4.6595 23.2596 2.99641 24.7363C2.81003 24.7363 2.76702 24.6933 2.78136 24.507C4.77419 21.6109 6.76702 18.7005 8.73118 15.7901C9.53405 14.5858 10.3226 13.3528 11.1685 12.1772C11.7706 11.2883 11.8136 11.2023 12.0287 10.9156C13.5627 8.63599 15.1685 6.34208 16.6738 4.03384C16.8602 3.84746 16.8029 3.73276 16.5591 3.76144C15.2832 5.55355 13.9642 7.31699 12.7025 9.13778C12.4875 9.41018 12.086 10.0123 7.81362 15.9908C7.71326 16.1485 6.17921 18.2417 6.07885 18.3708C4.70251 20.2919 3.32616 22.2417 1.92115 24.1342C1.84946 24.1915 1.77778 24.2489 1.67742 24.1915V24.0195C2.681 21.4102 3.74193 18.7865 4.83154 16.2202C6.42294 12.2202 8.01434 8.19154 9.63441 4.19154C9.63441 4.10552 9.63441 4.10552 9.57706 4.03384C9.51971 4.03384 9.46236 4.04817 9.41935 4.09118C8.18638 6.85821 6.91039 9.62523 5.66308 12.3923C5.60573 12.4639 4.30107 15.3743 3.92831 16.1199C3.77061 16.507 3.64158 16.7507 3.46953 17.1521C2.4086 19.3887 1.39068 21.6682 0.372759 23.9335C0.243726 23.9908 0.129032 24.0052 0 23.9478C0.0143369 23.7901 0.0143356 23.7901 0.516128 21.9406C0.559138 21.8403 0.702509 21.2811 0.745519 21.1665C0.78853 20.9657 0.831541 20.8654 1.319 18.9442C1.57706 17.9837 1.83512 17.0231 2.10753 16.0768C2.15054 15.8761 4.58781 7.05893 4.61649 6.92989C4.70251 6.64316 4.77419 6.37075 4.86021 6.08402C5.17563 4.85104 5.50537 3.70409 5.7491 2.71484C5.77778 2.64316 5.80645 2.62882 5.8638 2.58581C10.2222 2.58581 14.595 2.60015 18.9677 2.57147C20.3011 2.64316 21.6631 2.87255 22.8961 3.44602C23.0251 3.54638 23.0251 3.54638 23.3405 3.71843C23.6129 3.91914 23.8996 4.14853 24.1577 4.4066C24.3011 4.60731 24.4301 4.80803 24.5735 5.00875C24.6595 5.20946 24.7312 5.42452 24.8172 5.62524C24.8745 5.92631 24.9462 6.22739 25.0036 6.51412C25.0036 6.74351 25.0036 7.00158 25.0179 7.27398ZM32 8.4066C31.914 9.02308 31.8136 9.59656 31.6416 10.1844C31.2832 10.9299 31.2832 10.9299 31.0538 11.3457C30.638 11.9765 30.1075 12.507 29.5484 13.0087C29.0036 13.4245 29.0036 13.4245 28.4158 13.8403C27.7133 14.2561 26.9391 14.5858 26.1935 14.9299C25.9068 15.0159 25.5627 15.0876 25.3047 15.2453C25.3047 15.317 25.3047 15.317 25.319 15.3457C26.2796 15.446 27.1254 15.7758 27.9283 16.3062C28.3154 16.636 28.6882 16.9657 29.0179 17.3672C29.405 17.9263 29.7061 18.4711 29.9355 19.1019C29.9928 19.36 30.0502 19.6037 30.1075 19.8618C30.1505 20.2632 30.1505 20.6647 30.1505 21.0804C30.0215 22.2561 29.5914 23.3027 28.9606 24.3062C28.5591 24.8654 28.5591 24.8654 28.1577 25.3815C27.4695 26.0984 26.6237 26.9156 25.7061 27.3313C25.0323 27.8331 24.129 28.1485 23.3548 28.4639C22.8674 28.6073 22.3656 28.765 21.8781 28.9227C20.7742 29.1234 20.7742 29.1234 20.6595 29.1665C19.8136 29.2525 19.8136 29.2525 19.5842 29.2955C14.681 29.4962 9.72043 29.4102 4.8172 29.4102C4.75986 29.3098 4.73118 29.1665 4.86021 29.1091C7.21147 29.0087 9.57706 28.894 11.9283 28.8224C12.3871 28.8224 12.8889 28.8367 13.3333 28.765C14.9104 28.7077 16.4444 28.636 18.0072 28.3923C18.1075 28.3492 18.5233 28.2632 19.1398 28.1055C22.1935 27.1163 24.9749 25.1808 26.2652 22.1414C26.3513 21.869 26.3513 21.869 26.4373 21.7113C26.509 21.3672 26.5806 21.0231 26.6523 20.679C26.6667 19.8331 26.6667 19.8331 26.6523 19.5034C26.5376 18.6862 26.2366 17.869 25.7634 17.1951C25.5484 16.9657 25.3477 16.722 25.1326 16.4926C24.129 15.7041 23.1398 15.1736 21.8495 15.0733C21.8495 14.9729 21.8781 14.9586 21.9642 14.9156C22.2796 14.8295 22.2796 14.8295 22.724 14.6718C24.7599 13.7829 26.5806 12.593 27.7276 10.6432C27.8423 10.3851 27.957 10.1127 28.0717 9.84029C28.2724 9.18079 28.3871 8.52129 28.4444 7.83312C28.4158 7.53204 28.4014 7.23097 28.3871 6.92989C28.3297 6.74351 28.2724 6.5428 28.215 6.34208C27.9713 5.75427 27.7133 5.39584 27.2688 4.9514C26.5663 4.39226 25.7778 3.97649 24.8889 3.77577C24.8889 3.76144 24.8889 3.73276 24.9032 3.71843C25.362 3.6324 25.9211 3.71843 26.3799 3.7471C26.595 3.79011 26.595 3.79011 27.3692 3.87613C27.6272 3.93348 27.8853 3.99083 28.1577 4.04817C28.9892 4.27757 29.8208 4.5643 30.5233 5.0661C30.724 5.25248 30.9391 5.43886 31.1398 5.62524C31.3118 5.89764 31.4839 6.1557 31.6559 6.41377C31.7419 6.67183 31.828 6.91556 31.914 7.17362C31.9283 7.54638 31.9857 7.97649 32 8.4066Z" fill="#F94F00"/>
</g>
<defs>
<clipPath id="clip0_15_2997">
<rect width="32" height="32" fill="white"/>
</clipPath>
</defs>
</svg>
